<?xml version="1.0" standalone="no"?>
<!DOCTYPE svg PUBLIC "-//W3C//DTD SVG 1.1//EN" "http://www.w3.org/Graphics/SVG/1.1/DTD/svg11.dtd">
<svg version="1.1" width="1200" height="838" onload="init(evt)" viewBox="0 0 1200 838" xmlns="http://www.w3.org/2000/svg" xmlns:xlink="http://www.w3.org/1999/xlink">
<!-- Flame graph stack visualization. See https://github.com/brendangregg/FlameGraph for latest version, and http://www.brendangregg.com/flamegraphs.html for examples. -->
<!-- NOTES:  -->
<defs>
	<linearGradient id="background" y1="0" y2="1" x1="0" x2="0" >
		<stop stop-color="#eeeeee" offset="5%" />
		<stop stop-color="#eeeeb0" offset="95%" />
	</linearGradient>
</defs>
<style type="text/css">
	text { font-family:Verdana; font-size:12px; fill:rgb(0,0,0); }
	#search, #ignorecase { opacity:0.1; cursor:pointer; }
	#search:hover, #search.show, #ignorecase:hover, #ignorecase.show { opacity:1; }
	#subtitle { text-anchor:middle; font-color:rgb(160,160,160); }
	#title { text-anchor:middle; font-size:17px}
	#unzoom { cursor:pointer; }
	#frames > *:hover { stroke:black; stroke-width:0.5; cursor:pointer; }
	.hide { display:none; }
	.parent { opacity:0.5; }
</style>
<script type="text/ecmascript">
<![CDATA[
	"use strict";
	var details, searchbtn, unzoombtn, matchedtxt, svg, searching, currentSearchTerm, ignorecase, ignorecaseBtn;
	function init(evt) {
		details = document.getElementById("details").firstChild;
		searchbtn = document.getElementById("search");
		ignorecaseBtn = document.getElementById("ignorecase");
		unzoombtn = document.getElementById("unzoom");
		matchedtxt = document.getElementById("matched");
		svg = document.getElementsByTagName("svg")[0];
		searching = 0;
		currentSearchTerm = null;

		// use GET parameters to restore a flamegraphs state.
		var params = get_params();
		if (params.x && params.y)
			zoom(find_group(document.querySelector('[x="' + params.x + '"][y="' + params.y + '"]')));
                if (params.s) search(params.s);
	}

	// event listeners
	window.addEventListener("click", function(e) {
		var target = find_group(e.target);
		if (target) {
			if (target.nodeName == "a") {
				if (e.ctrlKey === false) return;
				e.preventDefault();
			}
			if (target.classList.contains("parent")) unzoom();
			zoom(target);
			if (!document.querySelector('.parent')) {
				clearzoom();
				return;
			}

			// set parameters for zoom state
			var el = target.querySelector("rect");
			if (el && el.attributes && el.attributes.y && el.attributes._orig_x) {
				var params = get_params()
				params.x = el.attributes._orig_x.value;
				params.y = el.attributes.y.value;
				history.replaceState(null, null, parse_params(params));
			}
		}
		else if (e.target.id == "unzoom") clearzoom();
		else if (e.target.id == "search") search_prompt();
		else if (e.target.id == "ignorecase") toggle_ignorecase();
	}, false)

	// mouse-over for info
	// show
	window.addEventListener("mouseover", function(e) {
		var target = find_group(e.target);
		if (target) details.nodeValue = "Function: " + g_to_text(target);
	}, false)

	// clear
	window.addEventListener("mouseout", function(e) {
		var target = find_group(e.target);
		if (target) details.nodeValue = ' ';
	}, false)

	// ctrl-F for search
	// ctrl-I to toggle case-sensitive search
	window.addEventListener("keydown",function (e) {
		if (e.keyCode === 114 || (e.ctrlKey && e.keyCode === 70)) {
			e.preventDefault();
			search_prompt();
		}
		else if (e.ctrlKey && e.keyCode === 73) {
			e.preventDefault();
			toggle_ignorecase();
		}
	}, false)

	// functions
	function get_params() {
		var params = {};
		var paramsarr = window.location.search.substr(1).split('&');
		for (var i = 0; i < paramsarr.length; ++i) {
			var tmp = paramsarr[i].split("=");
			if (!tmp[0] || !tmp[1]) continue;
			params[tmp[0]]  = decodeURIComponent(tmp[1]);
		}
		return params;
	}
	function parse_params(params) {
		var uri = "?";
		for (var key in params) {
			uri += key + '=' + encodeURIComponent(params[key]) + '&';
		}
		if (uri.slice(-1) == "&")
			uri = uri.substring(0, uri.length - 1);
		if (uri == '?')
			uri = window.location.href.split('?')[0];
		return uri;
	}
	function find_child(node, selector) {
		var children = node.querySelectorAll(selector);
		if (children.length) return children[0];
	}
	function find_group(node) {
		var parent = node.parentElement;
		if (!parent) return;
		if (parent.id == "frames") return node;
		return find_group(parent);
	}
	function orig_save(e, attr, val) {
		if (e.attributes["_orig_" + attr] != undefined) return;
		if (e.attributes[attr] == undefined) return;
		if (val == undefined) val = e.attributes[attr].value;
		e.setAttribute("_orig_" + attr, val);
	}
	function orig_load(e, attr) {
		if (e.attributes["_orig_"+attr] == undefined) return;
		e.attributes[attr].value = e.attributes["_orig_" + attr].value;
		e.removeAttribute("_orig_"+attr);
	}
	function g_to_text(e) {
		var text = find_child(e, "title").firstChild.nodeValue;
		return (text)
	}
	function g_to_func(e) {
		var func = g_to_text(e);
		// if there's any manipulation we want to do to the function
		// name before it's searched, do it here before returning.
		return (func);
	}
	function update_text(e) {
		var r = find_child(e, "rect");
		var t = find_child(e, "text");
		var w = parseFloat(r.attributes.width.value) -3;
		var txt = find_child(e, "title").textContent.replace(/\([^(]*\)$/,"");
		t.attributes.x.value = parseFloat(r.attributes.x.value) + 3;

		// Smaller than this size won't fit anything
		if (w < 2 * 12 * 0.59) {
			t.textContent = "";
			return;
		}

		t.textContent = txt;
		// Fit in full text width
		if (/^ *$/.test(txt) || t.getSubStringLength(0, txt.length) < w)
			return;

		for (var x = txt.length - 2; x > 0; x--) {
			if (t.getSubStringLength(0, x + 2) <= w) {
				t.textContent = txt.substring(0, x) + "..";
				return;
			}
		}
		t.textContent = "";
	}

	// zoom
	function zoom_reset(e) {
		if (e.attributes != undefined) {
			orig_load(e, "x");
			orig_load(e, "width");
		}
		if (e.childNodes == undefined) return;
		for (var i = 0, c = e.childNodes; i < c.length; i++) {
			zoom_reset(c[i]);
		}
	}
	function zoom_child(e, x, ratio) {
		if (e.attributes != undefined) {
			if (e.attributes.x != undefined) {
				orig_save(e, "x");
				e.attributes.x.value = (parseFloat(e.attributes.x.value) - x - 10) * ratio + 10;
				if (e.tagName == "text")
					e.attributes.x.value = find_child(e.parentNode, "rect[x]").attributes.x.value + 3;
			}
			if (e.attributes.width != undefined) {
				orig_save(e, "width");
				e.attributes.width.value = parseFloat(e.attributes.width.value) * ratio;
			}
		}

		if (e.childNodes == undefined) return;
		for (var i = 0, c = e.childNodes; i < c.length; i++) {
			zoom_child(c[i], x - 10, ratio);
		}
	}
	function zoom_parent(e) {
		if (e.attributes) {
			if (e.attributes.x != undefined) {
				orig_save(e, "x");
				e.attributes.x.value = 10;
			}
			if (e.attributes.width != undefined) {
				orig_save(e, "width");
				e.attributes.width.value = parseInt(svg.width.baseVal.value) - (10 * 2);
			}
		}
		if (e.childNodes == undefined) return;
		for (var i = 0, c = e.childNodes; i < c.length; i++) {
			zoom_parent(c[i]);
		}
	}
	function zoom(node) {
		var attr = find_child(node, "rect").attributes;
		var width = parseFloat(attr.width.value);
		var xmin = parseFloat(attr.x.value);
		var xmax = parseFloat(xmin + width);
		var ymin = parseFloat(attr.y.value);
		var ratio = (svg.width.baseVal.value - 2 * 10) / width;

		// XXX: Workaround for JavaScript float issues (fix me)
		var fudge = 0.0001;

		unzoombtn.classList.remove("hide");

		var el = document.getElementById("frames").children;
		for (var i = 0; i < el.length; i++) {
			var e = el[i];
			var a = find_child(e, "rect").attributes;
			var ex = parseFloat(a.x.value);
			var ew = parseFloat(a.width.value);
			var upstack;
			// Is it an ancestor
			if (0 == 0) {
				upstack = parseFloat(a.y.value) > ymin;
			} else {
				upstack = parseFloat(a.y.value) < ymin;
			}
			if (upstack) {
				// Direct ancestor
				if (ex <= xmin && (ex+ew+fudge) >= xmax) {
					e.classList.add("parent");
					zoom_parent(e);
					update_text(e);
				}
				// not in current path
				else
					e.classList.add("hide");
			}
			// Children maybe
			else {
				// no common path
				if (ex < xmin || ex + fudge >= xmax) {
					e.classList.add("hide");
				}
				else {
					zoom_child(e, xmin, ratio);
					update_text(e);
				}
			}
		}
		search();
	}
	function unzoom() {
		unzoombtn.classList.add("hide");
		var el = document.getElementById("frames").children;
		for(var i = 0; i < el.length; i++) {
			el[i].classList.remove("parent");
			el[i].classList.remove("hide");
			zoom_reset(el[i]);
			update_text(el[i]);
		}
		search();
	}
	function clearzoom() {
		unzoom();

		// remove zoom state
		var params = get_params();
		if (params.x) delete params.x;
		if (params.y) delete params.y;
		history.replaceState(null, null, parse_params(params));
	}

	// search
	function toggle_ignorecase() {
		ignorecase = !ignorecase;
		if (ignorecase) {
			ignorecaseBtn.classList.add("show");
		} else {
			ignorecaseBtn.classList.remove("show");
		}
		reset_search();
		search();
	}
	function reset_search() {
		var el = document.querySelectorAll("#frames rect");
		for (var i = 0; i < el.length; i++) {
			orig_load(el[i], "fill")
		}
		var params = get_params();
		delete params.s;
		history.replaceState(null, null, parse_params(params));
	}
	function search_prompt() {
		if (!searching) {
			var term = prompt("Enter a search term (regexp " +
			    "allowed, eg: ^ext4_)"
			    + (ignorecase ? ", ignoring case" : "")
			    + "\nPress Ctrl-i to toggle case sensitivity", "");
			if (term != null) search(term);
		} else {
			reset_search();
			searching = 0;
			currentSearchTerm = null;
			searchbtn.classList.remove("show");
			searchbtn.firstChild.nodeValue = "Search"
			matchedtxt.classList.add("hide");
			matchedtxt.firstChild.nodeValue = ""
		}
	}
	function search(term) {
		if (term) currentSearchTerm = term;

		var re = new RegExp(currentSearchTerm, ignorecase ? 'i' : '');
		var el = document.getElementById("frames").children;
		var matches = new Object();
		var maxwidth = 0;
		for (var i = 0; i < el.length; i++) {
			var e = el[i];
			var func = g_to_func(e);
			var rect = find_child(e, "rect");
			if (func == null || rect == null)
				continue;

			// Save max width. Only works as we have a root frame
			var w = parseFloat(rect.attributes.width.value);
			if (w > maxwidth)
				maxwidth = w;

			if (func.match(re)) {
				// highlight
				var x = parseFloat(rect.attributes.x.value);
				orig_save(rect, "fill");
				rect.attributes.fill.value = "rgb(230,0,230)";

				// remember matches
				if (matches[x] == undefined) {
					matches[x] = w;
				} else {
					if (w > matches[x]) {
						// overwrite with parent
						matches[x] = w;
					}
				}
				searching = 1;
			}
		}
		if (!searching)
			return;
		var params = get_params();
		params.s = currentSearchTerm;
		history.replaceState(null, null, parse_params(params));

		searchbtn.classList.add("show");
		searchbtn.firstChild.nodeValue = "Reset Search";

		// calculate percent matched, excluding vertical overlap
		var count = 0;
		var lastx = -1;
		var lastw = 0;
		var keys = Array();
		for (k in matches) {
			if (matches.hasOwnProperty(k))
				keys.push(k);
		}
		// sort the matched frames by their x location
		// ascending, then width descending
		keys.sort(function(a, b){
			return a - b;
		});
		// Step through frames saving only the biggest bottom-up frames
		// thanks to the sort order. This relies on the tree property
		// where children are always smaller than their parents.
		var fudge = 0.0001;	// JavaScript floating point
		for (var k in keys) {
			var x = parseFloat(keys[k]);
			var w = matches[keys[k]];
			if (x >= lastx + lastw - fudge) {
				count += w;
				lastx = x;
				lastw = w;
			}
		}
		// display matched percent
		matchedtxt.classList.remove("hide");
		var pct = 100 * count / maxwidth;
		if (pct != 100) pct = pct.toFixed(1)
		matchedtxt.firstChild.nodeValue = "Matched: " + pct + "%";
	}
]]>
</script>
<rect x="0.0" y="0" width="1200.0" height="838.0" fill="url(#background)"  />
<text id="title" x="600.00" y="24" >Flame Graph</text>
<text id="details" x="10.00" y="821" > </text>
<text id="unzoom" x="10.00" y="24" class="hide">Reset Zoom</text>
<text id="search" x="1090.00" y="24" >Search</text>
<text id="ignorecase" x="1174.00" y="24" >ic</text>
<text id="matched" x="1090.00" y="821" > </text>
<g id="frames">
<g >
<title>schedule (4 samples, 19.05%)</title><rect x="909.0" y="437" width="224.8" height="15.0" fill="rgb(244,32,16)" rx="2" ry="2" />
<text  x="912.05" y="447.5" >schedule</text>
</g>
<g >
<title>[kube-apiserver] (1 samples, 4.76%)</title><rect x="459.5" y="165" width="56.2" height="15.0" fill="rgb(233,210,47)" rx="2" ry="2" />
<text  x="462.52" y="175.5" >[kube..</text>
</g>
<g >
<title>schedule_hrtimeout_range (4 samples, 19.05%)</title><rect x="909.0" y="469" width="224.8" height="15.0" fill="rgb(244,8,37)" rx="2" ry="2" />
<text  x="912.05" y="479.5" >schedule_hrtimeout_range</text>
</g>
<g >
<title>[kube-apiserver] (1 samples, 4.76%)</title><rect x="459.5" y="85" width="56.2" height="15.0" fill="rgb(236,129,24)" rx="2" ry="2" />
<text  x="462.52" y="95.5" >[kube..</text>
</g>
<g >
<title>[kube-apiserver] (1 samples, 4.76%)</title><rect x="459.5" y="181" width="56.2" height="15.0" fill="rgb(221,228,39)" rx="2" ry="2" />
<text  x="462.52" y="191.5" >[kube..</text>
</g>
<g >
<title>[kube-apiserver] (1 samples, 4.76%)</title><rect x="459.5" y="101" width="56.2" height="15.0" fill="rgb(213,12,3)" rx="2" ry="2" />
<text  x="462.52" y="111.5" >[kube..</text>
</g>
<g >
<title>_copy_to_iter (1 samples, 4.76%)</title><rect x="1133.8" y="469" width="56.2" height="15.0" fill="rgb(253,155,10)" rx="2" ry="2" />
<text  x="1136.81" y="479.5" >_copy..</text>
</g>
<g >
<title>[kube-apiserver] (1 samples, 4.76%)</title><rect x="459.5" y="501" width="56.2" height="15.0" fill="rgb(253,136,33)" rx="2" ry="2" />
<text  x="462.52" y="511.5" >[kube..</text>
</g>
<g >
<title>[kube-apiserver] (1 samples, 4.76%)</title><rect x="459.5" y="469" width="56.2" height="15.0" fill="rgb(242,159,46)" rx="2" ry="2" />
<text  x="462.52" y="479.5" >[kube..</text>
</g>
<g >
<title>try_charge_memcg (1 samples, 4.76%)</title><rect x="740.5" y="357" width="56.2" height="15.0" fill="rgb(214,127,8)" rx="2" ry="2" />
<text  x="743.48" y="367.5" >try_c..</text>
</g>
<g >
<title>vfs_read (1 samples, 4.76%)</title><rect x="1133.8" y="517" width="56.2" height="15.0" fill="rgb(239,93,44)" rx="2" ry="2" />
<text  x="1136.81" y="527.5" >vfs_r..</text>
</g>
<g >
<title>ep_poll (5 samples, 23.81%)</title><rect x="852.9" y="485" width="280.9" height="15.0" fill="rgb(252,15,3)" rx="2" ry="2" />
<text  x="855.86" y="495.5" >ep_poll</text>
</g>
<g >
<title>[kube-apiserver] (1 samples, 4.76%)</title><rect x="459.5" y="437" width="56.2" height="15.0" fill="rgb(247,84,3)" rx="2" ry="2" />
<text  x="462.52" y="447.5" >[kube..</text>
</g>
<g >
<title>[kube-apiserver] (1 samples, 4.76%)</title><rect x="459.5" y="485" width="56.2" height="15.0" fill="rgb(242,78,29)" rx="2" ry="2" />
<text  x="462.52" y="495.5" >[kube..</text>
</g>
<g >
<title>[kube-apiserver] (21 samples, 100.00%)</title><rect x="10.0" y="741" width="1180.0" height="15.0" fill="rgb(228,16,40)" rx="2" ry="2" />
<text  x="13.00" y="751.5" >[kube-apiserver]</text>
</g>
<g >
<title>[kube-apiserver] (17 samples, 80.95%)</title><rect x="178.6" y="597" width="955.2" height="15.0" fill="rgb(216,217,4)" rx="2" ry="2" />
<text  x="181.57" y="607.5" >[kube-apiserver]</text>
</g>
<g >
<title>[kube-apiserver] (19 samples, 90.48%)</title><rect x="122.4" y="677" width="1067.6" height="15.0" fill="rgb(214,221,28)" rx="2" ry="2" />
<text  x="125.38" y="687.5" >[kube-apiserver]</text>
</g>
<g >
<title>vfs_write (1 samples, 4.76%)</title><rect x="740.5" y="485" width="56.2" height="15.0" fill="rgb(243,226,32)" rx="2" ry="2" />
<text  x="743.48" y="495.5" >vfs_w..</text>
</g>
<g >
<title>do_syscall_64 (6 samples, 28.57%)</title><rect x="796.7" y="565" width="337.1" height="15.0" fill="rgb(219,53,48)" rx="2" ry="2" />
<text  x="799.67" y="575.5" >do_syscall_64</text>
</g>
<g >
<title>__futex_wait (2 samples, 9.52%)</title><rect x="628.1" y="469" width="112.4" height="15.0" fill="rgb(237,125,45)" rx="2" ry="2" />
<text  x="631.10" y="479.5" >__futex_wait</text>
</g>
<g >
<title>copy_page_to_iter (1 samples, 4.76%)</title><rect x="1133.8" y="485" width="56.2" height="15.0" fill="rgb(231,59,27)" rx="2" ry="2" />
<text  x="1136.81" y="495.5" >copy_..</text>
</g>
<g >
<title>[kube-apiserver] (1 samples, 4.76%)</title><rect x="459.5" y="37" width="56.2" height="15.0" fill="rgb(238,149,42)" rx="2" ry="2" />
<text  x="462.52" y="47.5" >[kube..</text>
</g>
<g >
<title>[kube-apiserver] (1 samples, 4.76%)</title><rect x="459.5" y="133" width="56.2" height="15.0" fill="rgb(247,194,51)" rx="2" ry="2" />
<text  x="462.52" y="143.5" >[kube..</text>
</g>
<g >
<title>[kube-apiserver] (1 samples, 4.76%)</title><rect x="459.5" y="293" width="56.2" height="15.0" fill="rgb(251,61,39)" rx="2" ry="2" />
<text  x="462.52" y="303.5" >[kube..</text>
</g>
<g >
<title>[kube-apiserver] (1 samples, 4.76%)</title><rect x="459.5" y="197" width="56.2" height="15.0" fill="rgb(209,2,29)" rx="2" ry="2" />
<text  x="462.52" y="207.5" >[kube..</text>
</g>
<g >
<title>do_syscall_64 (1 samples, 4.76%)</title><rect x="1133.8" y="581" width="56.2" height="15.0" fill="rgb(214,223,24)" rx="2" ry="2" />
<text  x="1136.81" y="591.5" >do_sy..</text>
</g>
<g >
<title>syscall_exit_to_user_mode (1 samples, 4.76%)</title><rect x="796.7" y="549" width="56.2" height="15.0" fill="rgb(222,71,30)" rx="2" ry="2" />
<text  x="799.67" y="559.5" >sysca..</text>
</g>
<g >
<title>__schedule (2 samples, 9.52%)</title><rect x="628.1" y="421" width="112.4" height="15.0" fill="rgb(217,179,48)" rx="2" ry="2" />
<text  x="631.10" y="431.5" >__schedule</text>
</g>
<g >
<title>x64_sys_call (5 samples, 23.81%)</title><rect x="852.9" y="549" width="280.9" height="15.0" fill="rgb(254,135,21)" rx="2" ry="2" />
<text  x="855.86" y="559.5" >x64_sys_call</text>
</g>
<g >
<title>do_syscall_64 (5 samples, 23.81%)</title><rect x="515.7" y="549" width="281.0" height="15.0" fill="rgb(237,142,16)" rx="2" ry="2" />
<text  x="518.71" y="559.5" >do_syscall_64</text>
</g>
<g >
<title>[kube-apiserver] (2 samples, 9.52%)</title><rect x="403.3" y="517" width="112.4" height="15.0" fill="rgb(250,152,44)" rx="2" ry="2" />
<text  x="406.33" y="527.5" >[kube-apiserv..</text>
</g>
<g >
<title>[kube-apiserver] (19 samples, 90.48%)</title><rect x="122.4" y="629" width="1067.6" height="15.0" fill="rgb(238,17,4)" rx="2" ry="2" />
<text  x="125.38" y="639.5" >[kube-apiserver]</text>
</g>
<g >
<title>[kube-apiserver] (2 samples, 9.52%)</title><rect x="403.3" y="565" width="112.4" height="15.0" fill="rgb(229,165,47)" rx="2" ry="2" />
<text  x="406.33" y="575.5" >[kube-apiserv..</text>
</g>
<g >
<title>[kube-apiserver] (21 samples, 100.00%)</title><rect x="10.0" y="725" width="1180.0" height="15.0" fill="rgb(247,49,22)" rx="2" ry="2" />
<text  x="13.00" y="735.5" >[kube-apiserver]</text>
</g>
<g >
<title>page_counter_try_charge (1 samples, 4.76%)</title><rect x="740.5" y="341" width="56.2" height="15.0" fill="rgb(240,76,48)" rx="2" ry="2" />
<text  x="743.48" y="351.5" >page_..</text>
</g>
<g >
<title>futex_wait_queue (2 samples, 9.52%)</title><rect x="628.1" y="453" width="112.4" height="15.0" fill="rgb(218,23,47)" rx="2" ry="2" />
<text  x="631.10" y="463.5" >futex_wait_qu..</text>
</g>
<g >
<title>[kube-apiserver] (1 samples, 4.76%)</title><rect x="459.5" y="261" width="56.2" height="15.0" fill="rgb(209,175,54)" rx="2" ry="2" />
<text  x="462.52" y="271.5" >[kube..</text>
</g>
<g >
<title>[kube-apiserver] (1 samples, 4.76%)</title><rect x="459.5" y="373" width="56.2" height="15.0" fill="rgb(209,149,12)" rx="2" ry="2" />
<text  x="462.52" y="383.5" >[kube..</text>
</g>
<g >
<title>syscall_exit_to_user_mode (1 samples, 4.76%)</title><rect x="571.9" y="533" width="56.2" height="15.0" fill="rgb(245,224,32)" rx="2" ry="2" />
<text  x="574.90" y="543.5" >sysca..</text>
</g>
<g >
<title>schedule_hrtimeout_range_clock (4 samples, 19.05%)</title><rect x="909.0" y="453" width="224.8" height="15.0" fill="rgb(234,185,25)" rx="2" ry="2" />
<text  x="912.05" y="463.5" >schedule_hrtimeout_range_clock</text>
</g>
<g >
<title>[kube-apiserver] (20 samples, 95.24%)</title><rect x="66.2" y="709" width="1123.8" height="15.0" fill="rgb(206,188,8)" rx="2" ry="2" />
<text  x="69.19" y="719.5" >[kube-apiserver]</text>
</g>
<g >
<title>[kube-apiserver] (1 samples, 4.76%)</title><rect x="459.5" y="389" width="56.2" height="15.0" fill="rgb(224,160,13)" rx="2" ry="2" />
<text  x="462.52" y="399.5" >[kube..</text>
</g>
<g >
<title>[kube-apiserver] (1 samples, 4.76%)</title><rect x="459.5" y="245" width="56.2" height="15.0" fill="rgb(235,35,19)" rx="2" ry="2" />
<text  x="462.52" y="255.5" >[kube..</text>
</g>
<g >
<title>schedule (2 samples, 9.52%)</title><rect x="628.1" y="437" width="112.4" height="15.0" fill="rgb(253,200,24)" rx="2" ry="2" />
<text  x="631.10" y="447.5" >schedule</text>
</g>
<g >
<title>[kube-apiserver] (19 samples, 90.48%)</title><rect x="122.4" y="693" width="1067.6" height="15.0" fill="rgb(249,164,14)" rx="2" ry="2" />
<text  x="125.38" y="703.5" >[kube-apiserver]</text>
</g>
<g >
<title>sock_write_iter (1 samples, 4.76%)</title><rect x="740.5" y="469" width="56.2" height="15.0" fill="rgb(245,59,52)" rx="2" ry="2" />
<text  x="743.48" y="479.5" >sock_..</text>
</g>
<g >
<title>entry_SYSCALL_64_after_hwframe (6 samples, 28.57%)</title><rect x="796.7" y="581" width="337.1" height="15.0" fill="rgb(254,67,22)" rx="2" ry="2" />
<text  x="799.67" y="591.5" >entry_SYSCALL_64_after_hwframe</text>
</g>
<g >
<title>__schedule (4 samples, 19.05%)</title><rect x="909.0" y="421" width="224.8" height="15.0" fill="rgb(247,0,23)" rx="2" ry="2" />
<text  x="912.05" y="431.5" >__schedule</text>
</g>
<g >
<title>pipe_read (1 samples, 4.76%)</title><rect x="1133.8" y="501" width="56.2" height="15.0" fill="rgb(236,88,51)" rx="2" ry="2" />
<text  x="1136.81" y="511.5" >pipe_..</text>
</g>
<g >
<title>[kube-apiserver] (1 samples, 4.76%)</title><rect x="459.5" y="453" width="56.2" height="15.0" fill="rgb(229,80,20)" rx="2" ry="2" />
<text  x="462.52" y="463.5" >[kube..</text>
</g>
<g >
<title>[kube-apiserver] (1 samples, 4.76%)</title><rect x="459.5" y="357" width="56.2" height="15.0" fill="rgb(211,123,14)" rx="2" ry="2" />
<text  x="462.52" y="367.5" >[kube..</text>
</g>
<g >
<title>__x64_sys_write (1 samples, 4.76%)</title><rect x="740.5" y="517" width="56.2" height="15.0" fill="rgb(231,184,49)" rx="2" ry="2" />
<text  x="743.48" y="527.5" >__x64..</text>
</g>
<g >
<title>__x64_sys_epoll_pwait (5 samples, 23.81%)</title><rect x="852.9" y="533" width="280.9" height="15.0" fill="rgb(214,216,54)" rx="2" ry="2" />
<text  x="855.86" y="543.5" >__x64_sys_epoll_pwait</text>
</g>
<g >
<title>x64_sys_call (3 samples, 14.29%)</title><rect x="628.1" y="533" width="168.6" height="15.0" fill="rgb(229,189,12)" rx="2" ry="2" />
<text  x="631.10" y="543.5" >x64_sys_call</text>
</g>
<g >
<title>sk_forced_mem_schedule (1 samples, 4.76%)</title><rect x="740.5" y="389" width="56.2" height="15.0" fill="rgb(218,186,11)" rx="2" ry="2" />
<text  x="743.48" y="399.5" >sk_fo..</text>
</g>
<g >
<title>[kube-apiserver] (2 samples, 9.52%)</title><rect x="403.3" y="533" width="112.4" height="15.0" fill="rgb(238,25,31)" rx="2" ry="2" />
<text  x="406.33" y="543.5" >[kube-apiserv..</text>
</g>
<g >
<title>[kube-apiserver] (19 samples, 90.48%)</title><rect x="122.4" y="645" width="1067.6" height="15.0" fill="rgb(214,88,25)" rx="2" ry="2" />
<text  x="125.38" y="655.5" >[kube-apiserver]</text>
</g>
<g >
<title>[kube-apiserver] (1 samples, 4.76%)</title><rect x="459.5" y="421" width="56.2" height="15.0" fill="rgb(246,148,8)" rx="2" ry="2" />
<text  x="462.52" y="431.5" >[kube..</text>
</g>
<g >
<title>[kube-apiserver] (1 samples, 4.76%)</title><rect x="459.5" y="149" width="56.2" height="15.0" fill="rgb(249,142,45)" rx="2" ry="2" />
<text  x="462.52" y="159.5" >[kube..</text>
</g>
<g >
<title>ksys_read (1 samples, 4.76%)</title><rect x="1133.8" y="533" width="56.2" height="15.0" fill="rgb(213,134,30)" rx="2" ry="2" />
<text  x="1136.81" y="543.5" >ksys_..</text>
</g>
<g >
<title>entry_SYSCALL_64_after_hwframe (5 samples, 23.81%)</title><rect x="515.7" y="565" width="281.0" height="15.0" fill="rgb(251,33,16)" rx="2" ry="2" />
<text  x="518.71" y="575.5" >entry_SYSCALL_64_after_hwframe</text>
</g>
<g >
<title>[kube-apiserver] (2 samples, 9.52%)</title><rect x="403.3" y="549" width="112.4" height="15.0" fill="rgb(212,48,33)" rx="2" ry="2" />
<text  x="406.33" y="559.5" >[kube-apiserv..</text>
</g>
<g >
<title>kube-apiserver (21 samples, 100.00%)</title><rect x="10.0" y="773" width="1180.0" height="15.0" fill="rgb(209,34,9)" rx="2" ry="2" />
<text  x="13.00" y="783.5" >kube-apiserver</text>
</g>
<g >
<title>[kube-apiserver] (1 samples, 4.76%)</title><rect x="459.5" y="117" width="56.2" height="15.0" fill="rgb(244,203,44)" rx="2" ry="2" />
<text  x="462.52" y="127.5" >[kube..</text>
</g>
<g >
<title>finish_task_switch.isra.0 (2 samples, 9.52%)</title><rect x="628.1" y="405" width="112.4" height="15.0" fill="rgb(241,162,4)" rx="2" ry="2" />
<text  x="631.10" y="415.5" >finish_task_s..</text>
</g>
<g >
<title>[kube-apiserver] (19 samples, 90.48%)</title><rect x="122.4" y="661" width="1067.6" height="15.0" fill="rgb(226,21,23)" rx="2" ry="2" />
<text  x="125.38" y="671.5" >[kube-apiserver]</text>
</g>
<g >
<title>[kube-apiserver] (1 samples, 4.76%)</title><rect x="459.5" y="405" width="56.2" height="15.0" fill="rgb(246,166,41)" rx="2" ry="2" />
<text  x="462.52" y="415.5" >[kube..</text>
</g>
<g >
<title>entry_SYSCALL_64_after_hwframe (1 samples, 4.76%)</title><rect x="1133.8" y="597" width="56.2" height="15.0" fill="rgb(234,93,51)" rx="2" ry="2" />
<text  x="1136.81" y="607.5" >entry..</text>
</g>
<g >
<title>[kube-apiserver] (1 samples, 4.76%)</title><rect x="459.5" y="229" width="56.2" height="15.0" fill="rgb(208,81,0)" rx="2" ry="2" />
<text  x="462.52" y="239.5" >[kube..</text>
</g>
<g >
<title>finish_task_switch.isra.0 (4 samples, 19.05%)</title><rect x="909.0" y="405" width="224.8" height="15.0" fill="rgb(247,185,33)" rx="2" ry="2" />
<text  x="912.05" y="415.5" >finish_task_switch.isra.0</text>
</g>
<g >
<title>ktime_get_ts64 (1 samples, 4.76%)</title><rect x="852.9" y="469" width="56.1" height="15.0" fill="rgb(219,190,6)" rx="2" ry="2" />
<text  x="855.86" y="479.5" >ktime..</text>
</g>
<g >
<title>[kube-apiserver] (1 samples, 4.76%)</title><rect x="459.5" y="213" width="56.2" height="15.0" fill="rgb(225,210,35)" rx="2" ry="2" />
<text  x="462.52" y="223.5" >[kube..</text>
</g>
<g >
<title>tcp_sendmsg_locked (1 samples, 4.76%)</title><rect x="740.5" y="421" width="56.2" height="15.0" fill="rgb(250,41,52)" rx="2" ry="2" />
<text  x="743.48" y="431.5" >tcp_s..</text>
</g>
<g >
<title>[kube-apiserver] (19 samples, 90.48%)</title><rect x="122.4" y="613" width="1067.6" height="15.0" fill="rgb(210,15,50)" rx="2" ry="2" />
<text  x="125.38" y="623.5" >[kube-apiserver]</text>
</g>
<g >
<title>[kube-apiserver] (1 samples, 4.76%)</title><rect x="459.5" y="341" width="56.2" height="15.0" fill="rgb(231,0,32)" rx="2" ry="2" />
<text  x="462.52" y="351.5" >[kube..</text>
</g>
<g >
<title>syscall_exit_to_user_mode_prepare (1 samples, 4.76%)</title><rect x="571.9" y="517" width="56.2" height="15.0" fill="rgb(205,23,1)" rx="2" ry="2" />
<text  x="574.90" y="527.5" >sysca..</text>
</g>
<g >
<title>__x64_sys_read (1 samples, 4.76%)</title><rect x="1133.8" y="549" width="56.2" height="15.0" fill="rgb(211,79,17)" rx="2" ry="2" />
<text  x="1136.81" y="559.5" >__x64..</text>
</g>
<g >
<title>[kube-apiserver] (1 samples, 4.76%)</title><rect x="459.5" y="53" width="56.2" height="15.0" fill="rgb(220,53,9)" rx="2" ry="2" />
<text  x="462.52" y="63.5" >[kube..</text>
</g>
<g >
<title>[kube-apiserver] (1 samples, 4.76%)</title><rect x="459.5" y="325" width="56.2" height="15.0" fill="rgb(218,22,6)" rx="2" ry="2" />
<text  x="462.52" y="335.5" >[kube..</text>
</g>
<g >
<title>[kube-apiserver] (1 samples, 4.76%)</title><rect x="459.5" y="69" width="56.2" height="15.0" fill="rgb(237,128,37)" rx="2" ry="2" />
<text  x="462.52" y="79.5" >[kube..</text>
</g>
<g >
<title>ksys_write (1 samples, 4.76%)</title><rect x="740.5" y="501" width="56.2" height="15.0" fill="rgb(207,59,13)" rx="2" ry="2" />
<text  x="743.48" y="511.5" >ksys_..</text>
</g>
<g >
<title>futex_wait (2 samples, 9.52%)</title><rect x="628.1" y="485" width="112.4" height="15.0" fill="rgb(249,193,46)" rx="2" ry="2" />
<text  x="631.10" y="495.5" >futex_wait</text>
</g>
<g >
<title>__x64_sys_futex (2 samples, 9.52%)</title><rect x="628.1" y="517" width="112.4" height="15.0" fill="rgb(209,157,2)" rx="2" ry="2" />
<text  x="631.10" y="527.5" >__x64_sys_futex</text>
</g>
<g >
<title>[kube-apiserver] (21 samples, 100.00%)</title><rect x="10.0" y="757" width="1180.0" height="15.0" fill="rgb(215,91,4)" rx="2" ry="2" />
<text  x="13.00" y="767.5" >[kube-apiserver]</text>
</g>
<g >
<title>[kube-apiserver] (1 samples, 4.76%)</title><rect x="459.5" y="277" width="56.2" height="15.0" fill="rgb(226,228,16)" rx="2" ry="2" />
<text  x="462.52" y="287.5" >[kube..</text>
</g>
<g >
<title>inet_sendmsg (1 samples, 4.76%)</title><rect x="740.5" y="453" width="56.2" height="15.0" fill="rgb(216,225,17)" rx="2" ry="2" />
<text  x="743.48" y="463.5" >inet_..</text>
</g>
<g >
<title>[kube-apiserver] (1 samples, 4.76%)</title><rect x="459.5" y="309" width="56.2" height="15.0" fill="rgb(239,185,51)" rx="2" ry="2" />
<text  x="462.52" y="319.5" >[kube..</text>
</g>
<g >
<title>do_futex (2 samples, 9.52%)</title><rect x="628.1" y="501" width="112.4" height="15.0" fill="rgb(241,168,47)" rx="2" ry="2" />
<text  x="631.10" y="511.5" >do_futex</text>
</g>
<g >
<title>x64_sys_call (1 samples, 4.76%)</title><rect x="1133.8" y="565" width="56.2" height="15.0" fill="rgb(235,116,45)" rx="2" ry="2" />
<text  x="1136.81" y="575.5" >x64_s..</text>
</g>
<g >
<title>mem_cgroup_charge_skmem (1 samples, 4.76%)</title><rect x="740.5" y="373" width="56.2" height="15.0" fill="rgb(230,138,38)" rx="2" ry="2" />
<text  x="743.48" y="383.5" >mem_c..</text>
</g>
<g >
<title>syscall_exit_to_user_mode_prepare (1 samples, 4.76%)</title><rect x="796.7" y="533" width="56.2" height="15.0" fill="rgb(227,119,31)" rx="2" ry="2" />
<text  x="799.67" y="543.5" >sysca..</text>
</g>
<g >
<title>tcp_stream_alloc_skb (1 samples, 4.76%)</title><rect x="740.5" y="405" width="56.2" height="15.0" fill="rgb(221,116,41)" rx="2" ry="2" />
<text  x="743.48" y="415.5" >tcp_s..</text>
</g>
<g >
<title>tcp_sendmsg (1 samples, 4.76%)</title><rect x="740.5" y="437" width="56.2" height="15.0" fill="rgb(238,124,1)" rx="2" ry="2" />
<text  x="743.48" y="447.5" >tcp_s..</text>
</g>
<g >
<title>do_epoll_wait (5 samples, 23.81%)</title><rect x="852.9" y="501" width="280.9" height="15.0" fill="rgb(223,93,12)" rx="2" ry="2" />
<text  x="855.86" y="511.5" >do_epoll_wait</text>
</g>
<g >
<title>[kube-apiserver] (7 samples, 33.33%)</title><rect x="403.3" y="581" width="393.4" height="15.0" fill="rgb(227,147,42)" rx="2" ry="2" />
<text  x="406.33" y="591.5" >[kube-apiserver]</text>
</g>
<g >
<title>all (21 samples, 100%)</title><rect x="10.0" y="789" width="1180.0" height="15.0" fill="rgb(216,117,6)" rx="2" ry="2" />
<text  x="13.00" y="799.5" ></text>
</g>
<g >
<title>do_epoll_pwait.part.0 (5 samples, 23.81%)</title><rect x="852.9" y="517" width="280.9" height="15.0" fill="rgb(208,169,8)" rx="2" ry="2" />
<text  x="855.86" y="527.5" >do_epoll_pwait.part.0</text>
</g>
</g>
</svg>
